<svg width="20" height="20" viewBox="0 0 20 20" fill="none" xmlns="http://www.w3.org/2000/svg">
<g clip-path="url(#clip0_3_871)">
<path d="M12.5431 16.2861L12.5431 16.2859L12.53 16.2849C12.1293 16.2541 11.6651 16.1761 11.1777 16.0562L11.1741 16.0553L9.77414 15.722L9.77338 15.7218C7.90869 15.2809 6.78645 14.5924 6.20522 13.6544C5.62412 12.7167 5.50836 11.4079 5.9451 9.5477L5.94519 9.54729L6.76186 6.05562L6.76211 6.05455C6.93967 5.28779 7.14509 4.68626 7.38888 4.19869L7.38891 4.19871L7.39163 4.1931C8.04054 2.85378 8.95701 2.27861 9.91869 2.0653C10.9133 1.84468 11.9953 2.00356 12.9523 2.22849L12.953 2.22865L14.3439 2.55349C14.344 2.55351 14.3442 2.55354 14.3443 2.55357C16.2334 2.99765 17.3166 3.67453 17.9084 4.62197C18.4926 5.57027 18.6235 6.84009 18.1799 8.72735L18.1799 8.72762L17.3633 12.2107C17.3632 12.2108 17.3632 12.2109 17.3632 12.211C17.0167 13.6853 16.4972 14.7048 15.8221 15.3544C15.1599 15.9915 14.3023 16.3168 13.175 16.3168C12.9715 16.3168 12.7641 16.3089 12.5431 16.2861ZM7.00526 6.10927L7.00526 6.10927L7.0048 6.11121L6.18831 9.60216C6.18829 9.60224 6.18827 9.60233 6.18825 9.60241C5.80939 11.2116 5.79993 12.5116 6.42406 13.5178C7.04779 14.5233 8.21751 15.0952 9.82586 15.4782L11.2246 15.8112C11.2249 15.8113 11.2252 15.8113 11.2254 15.8114C11.6979 15.9251 12.1462 15.9957 12.5536 16.0313C13.7649 16.151 14.7694 15.9534 15.5533 15.271C16.3167 14.6064 16.7874 13.5515 17.1119 12.1554C17.1119 12.1552 17.112 12.1551 17.112 12.1549L17.9285 8.67255L17.9286 8.67195C18.3124 7.02606 18.2987 5.73473 17.6919 4.75372C17.085 3.77252 15.9365 3.18072 14.2799 2.79641C14.2798 2.79639 14.2797 2.79637 14.2796 2.79635L12.8921 2.47233C12.8916 2.47219 12.891 2.47205 12.8904 2.47191C12.1726 2.29906 11.516 2.20842 10.9333 2.20842C10.1675 2.20842 9.49951 2.36729 8.9318 2.7281C8.36467 3.08854 7.9409 3.62303 7.616 4.30019C7.37977 4.79091 7.17769 5.38508 7.00526 6.10927Z" fill="#292D32" stroke="#94A3B8"/>
<path d="M3.03412 14.3964L3.03398 14.396L1.9675 11.1049C1.96747 11.1048 1.96743 11.1046 1.96739 11.1045C1.39339 9.32578 1.40152 8.04772 1.88705 7.09609C2.37246 6.14469 3.40043 5.39142 5.17057 4.8175C5.17067 4.81746 5.17077 4.81743 5.17087 4.8174L6.48365 4.39365C6.91506 4.26095 7.21179 4.17847 7.46782 4.13458L7.47625 4.13313L7.48464 4.1314C7.51349 4.12543 7.53504 4.12889 7.5506 4.13484C7.5664 4.14088 7.58304 4.15217 7.59791 4.1723C7.62969 4.21529 7.63639 4.26944 7.61425 4.32042C7.37791 4.804 7.17636 5.39838 7.01273 6.12133L6.19664 9.61051C6.19659 9.61072 6.19654 9.61094 6.19649 9.61115C6.19649 9.61118 6.19648 9.6112 6.19648 9.61123C5.81773 11.2202 5.80832 12.5201 6.4324 13.5262C7.05612 14.5317 8.22584 15.1036 9.83419 15.4865L11.233 15.8195C11.2332 15.8196 11.2335 15.8197 11.2338 15.8197C11.7065 15.9335 12.1551 16.0041 12.5627 16.0397C12.6168 16.0451 12.6635 16.0788 12.6841 16.1403C12.6951 16.1932 12.6746 16.2423 12.633 16.2717C12.1352 16.6107 11.4917 16.9089 10.646 17.1827L10.6437 17.1835L9.33051 17.6157C8.40519 17.9051 7.6251 18.0418 6.94167 18.0418C5.98184 18.0418 5.2296 17.7588 4.61301 17.1931C3.98258 16.6148 3.45764 15.7073 3.03412 14.3964ZM6.95935 5.33644L7.25869 4.40516L6.32854 4.708L5.25503 5.05752C5.25477 5.0576 5.2545 5.05769 5.25424 5.05777C3.73334 5.5478 2.64797 6.19165 2.12529 7.21799C1.60304 8.24346 1.71765 9.50375 2.20729 11.028L2.20769 11.0292L3.27435 14.3209L3.27448 14.3213C3.76869 15.8423 4.41464 16.9289 5.43993 17.4535C6.4654 17.9783 7.72378 17.866 9.24498 17.376L9.24498 17.376L9.24798 17.375L10.5646 16.9417L10.5665 16.9411C10.5979 16.9306 10.6262 16.9203 10.6482 16.9123L10.65 16.9117C10.6736 16.9031 10.6905 16.897 10.7081 16.8911L12.3785 16.3343L10.6648 15.9301L9.78172 15.7219C9.78163 15.7218 9.78154 15.7218 9.78144 15.7218C7.91692 15.2809 6.79476 14.5923 6.21356 13.6544C5.63246 12.7167 5.51669 11.4079 5.95343 9.54772L5.95353 9.54731L6.7702 6.05564L6.77025 6.05565L6.77179 6.04862C6.82773 5.79288 6.89049 5.55066 6.95935 5.33644Z" fill="#292D32" stroke="#94A3B8"/>
<path d="M10.4979 7.2321L10.4979 7.2321L10.4963 7.23168C10.4369 7.21686 10.3922 7.15129 10.4101 7.07969C10.4249 7.02052 10.4901 6.97581 10.5615 6.99336C10.5617 6.99341 10.5619 6.99345 10.5621 6.99349L14.6021 8.01808L14.6037 8.01849C14.663 8.03332 14.7078 8.09889 14.6899 8.17048L14.6891 8.17396C14.6847 8.19208 14.6726 8.21325 14.6488 8.23147C14.6245 8.25012 14.5973 8.2583 14.5755 8.25842C14.5746 8.25838 14.5698 8.25813 14.5585 8.25678C14.5509 8.25587 14.5419 8.25465 14.5297 8.2529L14.5142 8.25065L10.4979 7.2321Z" fill="#292D32" stroke="#94A3B8"/>
<path d="M9.67323 10.4572L9.67323 10.4572L9.67127 10.4567C9.61196 10.4419 9.56718 10.3763 9.58508 10.3047C9.59986 10.2456 9.6651 10.2009 9.73645 10.2183L12.1601 10.8347L12.1601 10.8347L12.1621 10.8352C12.2214 10.85 12.2662 10.9156 12.2483 10.9872L12.2482 10.9871L12.2466 10.9939C12.2404 11.0203 12.2275 11.0381 12.2109 11.0508C12.1931 11.0644 12.1668 11.0751 12.1333 11.0751C12.1338 11.0751 12.134 11.0751 12.134 11.0751C12.1337 11.0751 12.129 11.0749 12.1169 11.0734C12.1093 11.0725 12.1003 11.0713 12.088 11.0696L12.0727 11.0674L9.67323 10.4572Z" fill="#292D32" stroke="#94A3B8"/>
</g>
<defs>
<clipPath id="clip0_3_871">
<rect width="20" height="20" fill="white"/>
</clipPath>
</defs>
</svg>
